# xmcd
#
# Track frame offsets: 
#        150
#        19780
#        44124
#        60243
#        69186
#        98283
#        118797
#        143282
#        161222
#
# Disc length: 3216 seconds
#
# Revision: 0
# Processed by: cddbd v1.5.2PL0 Copyright (c) Steve Scherf et al.
# Submitted via: ExactAudioCopy v0.95a5
#
DISCID=6b0c8e09
DTITLE=Садов Сергей - Оберег
DYEAR=2005
DGENRE=Acoustic
TTITLE0=Живая вода
TTITLE1=Песни ветра
TTITLE2=Хороводная
TTITLE3=Скоморошина
TTITLE4=Рахат Лукум
TTITLE5=Сказания о земле Русской
TTITLE6=Золотые врата города Владимира
TTITLE7=Оберег
TTITLE8=video bonus (data track)
EXTD=
EXTT0=
EXTT1=
EXTT2=
EXTT3=
EXTT4=
EXTT5=
EXTT6=
EXTT7=
EXTT8=
PLAYORDER=
